<svg xmlns="http://www.w3.org/2000/svg" width="14.399" height="13.425" viewBox="0 0 14.399 13.425">
  <g id="Compare_icon" data-name="Compare icon" transform="translate(0.5 0.707)">
    <g id="Group_23" data-name="Group 23" transform="translate(0 0)">
      <path id="Path_48" data-name="Path 48" d="M260.334,309.9h-2.695a1.643,1.643,0,0,0-1.358.718l-4.263,6.254a1.642,1.642,0,0,1-1.358.718h-3.725" transform="translate(-246.935 -308.166)" fill="none" stroke="#aaa" stroke-linecap="round" stroke-linejoin="round" stroke-width="1"/>
      <path id="Path_49" data-name="Path 49" d="M273.043,306.012l1.738,1.738-1.738,1.738" transform="translate(-261.383 -306.012)" fill="none" stroke="#aaa" stroke-linecap="round" stroke-linejoin="round" stroke-width="1"/>
    </g>
    <g id="Group_24" data-name="Group 24" transform="translate(0 2.583)">
      <path id="Path_50" data-name="Path 50" d="M260.334,319.485h-2.695a1.644,1.644,0,0,1-1.358-.718l-4.263-6.255a1.643,1.643,0,0,0-1.358-.718h-3.725" transform="translate(-246.935 -311.795)" fill="none" stroke="#aaa" stroke-linecap="round" stroke-linejoin="round" stroke-width="1"/>
      <path id="Path_51" data-name="Path 51" d="M273.043,325.121l1.738,1.738-1.738,1.738" transform="translate(-261.383 -319.169)" fill="none" stroke="#aaa" stroke-linecap="round" stroke-linejoin="round" stroke-width="1"/>
    </g>
  </g>
</svg>
